<svg id="visual" viewBox="0 0 960 200" width="960" height="200" xmlns="http://www.w3.org/2000/svg" xmlns:xlink="http://www.w3.org/1999/xlink" version="1.1"><rect x="0" y="0" width="960" height="200" fill="#a06cd5"></rect><path d="M0 152L17.8 140.8C35.7 129.7 71.3 107.3 106.8 105.2C142.3 103 177.7 121 213.2 116C248.7 111 284.3 83 320 69.5C355.7 56 391.3 57 426.8 73.8C462.3 90.7 497.7 123.3 533.2 139C568.7 154.7 604.3 153.3 640 152C675.7 150.7 711.3 149.3 746.8 145.8C782.3 142.3 817.7 136.7 853.2 125.2C888.7 113.7 924.3 96.3 942.2 87.7L960 79L960 0L942.2 0C924.3 0 888.7 0 853.2 0C817.7 0 782.3 0 746.8 0C711.3 0 675.7 0 640 0C604.3 0 568.7 0 533.2 0C497.7 0 462.3 0 426.8 0C391.3 0 355.7 0 320 0C284.3 0 248.7 0 213.2 0C177.7 0 142.3 0 106.8 0C71.3 0 35.7 0 17.8 0L0 0Z" fill="#00b4d8" stroke-linecap="round" stroke-linejoin="miter"></path></svg>