<svg id="visual" viewBox="0 0 960 200" width="960" height="200" xmlns="http://www.w3.org/2000/svg" xmlns:xlink="http://www.w3.org/1999/xlink" version="1.1"><rect x="0" y="0" width="960" height="200" fill="#00b4d8"></rect><path d="M0 123L17.8 110.7C35.7 98.3 71.3 73.7 106.8 79.3C142.3 85 177.7 121 213.2 133.8C248.7 146.7 284.3 136.3 320 122.8C355.7 109.3 391.3 92.7 426.8 84.5C462.3 76.3 497.7 76.7 533.2 84.5C568.7 92.3 604.3 107.7 640 119.7C675.7 131.7 711.3 140.3 746.8 134.8C782.3 129.3 817.7 109.7 853.2 102.3C888.7 95 924.3 100 942.2 102.5L960 105L960 0L942.2 0C924.3 0 888.7 0 853.2 0C817.7 0 782.3 0 746.8 0C711.3 0 675.7 0 640 0C604.3 0 568.7 0 533.2 0C497.7 0 462.3 0 426.8 0C391.3 0 355.7 0 320 0C284.3 0 248.7 0 213.2 0C177.7 0 142.3 0 106.8 0C71.3 0 35.7 0 17.8 0L0 0Z" fill="#a5be00" stroke-linecap="round" stroke-linejoin="miter"></path></svg>