<svg id="visual" viewBox="0 0 960 200" width="960" height="200" xmlns="http://www.w3.org/2000/svg" xmlns:xlink="http://www.w3.org/1999/xlink" version="1.1"><rect x="0" y="0" width="960" height="200" fill="#a5be00"></rect><path d="M0 63L13.3 60.2C26.7 57.3 53.3 51.7 80 55.5C106.7 59.3 133.3 72.7 160 74.3C186.7 76 213.3 66 240 63.5C266.7 61 293.3 66 320 69.8C346.7 73.7 373.3 76.3 400 79.7C426.7 83 453.3 87 480 88.2C506.7 89.3 533.3 87.7 560 86.5C586.7 85.3 613.3 84.7 640 84.3C666.7 84 693.3 84 720 80.5C746.7 77 773.3 70 800 64C826.7 58 853.3 53 880 51.2C906.7 49.3 933.3 50.7 946.7 51.3L960 52L960 201L946.7 201C933.3 201 906.7 201 880 201C853.3 201 826.7 201 800 201C773.3 201 746.7 201 720 201C693.3 201 666.7 201 640 201C613.3 201 586.7 201 560 201C533.3 201 506.7 201 480 201C453.3 201 426.7 201 400 201C373.3 201 346.7 201 320 201C293.3 201 266.7 201 240 201C213.3 201 186.7 201 160 201C133.3 201 106.7 201 80 201C53.3 201 26.7 201 13.3 201L0 201Z" fill="#a5be00"></path><path d="M0 59L13.3 59.5C26.7 60 53.3 61 80 62C106.7 63 133.3 64 160 67.2C186.7 70.3 213.3 75.7 240 77.5C266.7 79.3 293.3 77.7 320 81.3C346.7 85 373.3 94 400 96.2C426.7 98.3 453.3 93.7 480 85.8C506.7 78 533.3 67 560 69.5C586.7 72 613.3 88 640 91.3C666.7 94.7 693.3 85.3 720 81C746.7 76.7 773.3 77.3 800 78.2C826.7 79 853.3 80 880 81.2C906.7 82.3 933.3 83.7 946.7 84.3L960 85L960 201L946.7 201C933.3 201 906.7 201 880 201C853.3 201 826.7 201 800 201C773.3 201 746.7 201 720 201C693.3 201 666.7 201 640 201C613.3 201 586.7 201 560 201C533.3 201 506.7 201 480 201C453.3 201 426.7 201 400 201C373.3 201 346.7 201 320 201C293.3 201 266.7 201 240 201C213.3 201 186.7 201 160 201C133.3 201 106.7 201 80 201C53.3 201 26.7 201 13.3 201L0 201Z" fill="#b7b600"></path><path d="M0 89L13.3 93.3C26.7 97.7 53.3 106.3 80 105.8C106.7 105.3 133.3 95.7 160 92.8C186.7 90 213.3 94 240 100C266.7 106 293.3 114 320 116.8C346.7 119.7 373.3 117.3 400 112.5C426.7 107.7 453.3 100.3 480 95.7C506.7 91 533.3 89 560 91C586.7 93 613.3 99 640 98.7C666.7 98.3 693.3 91.7 720 88.8C746.7 86 773.3 87 800 90.7C826.7 94.3 853.3 100.7 880 103.3C906.7 106 933.3 105 946.7 104.5L960 104L960 201L946.7 201C933.3 201 906.7 201 880 201C853.3 201 826.7 201 800 201C773.3 201 746.7 201 720 201C693.3 201 666.7 201 640 201C613.3 201 586.7 201 560 201C533.3 201 506.7 201 480 201C453.3 201 426.7 201 400 201C373.3 201 346.7 201 320 201C293.3 201 266.7 201 240 201C213.3 201 186.7 201 160 201C133.3 201 106.7 201 80 201C53.3 201 26.7 201 13.3 201L0 201Z" fill="#c8ae00"></path><path d="M0 119L13.3 117.2C26.7 115.3 53.3 111.7 80 110.7C106.7 109.7 133.3 111.3 160 110.3C186.7 109.3 213.3 105.7 240 103.8C266.7 102 293.3 102 320 107.3C346.7 112.7 373.3 123.3 400 127.5C426.7 131.7 453.3 129.3 480 123.8C506.7 118.3 533.3 109.7 560 107.7C586.7 105.7 613.3 110.3 640 113.2C666.7 116 693.3 117 720 120.8C746.7 124.7 773.3 131.3 800 135C826.7 138.7 853.3 139.3 880 135C906.7 130.7 933.3 121.3 946.7 116.7L960 112L960 201L946.7 201C933.3 201 906.7 201 880 201C853.3 201 826.7 201 800 201C773.3 201 746.7 201 720 201C693.3 201 666.7 201 640 201C613.3 201 586.7 201 560 201C533.3 201 506.7 201 480 201C453.3 201 426.7 201 400 201C373.3 201 346.7 201 320 201C293.3 201 266.7 201 240 201C213.3 201 186.7 201 160 201C133.3 201 106.7 201 80 201C53.3 201 26.7 201 13.3 201L0 201Z" fill="#d6a600"></path><path d="M0 123L13.3 123.8C26.7 124.7 53.3 126.3 80 128C106.7 129.7 133.3 131.3 160 134.5C186.7 137.7 213.3 142.3 240 145.5C266.7 148.7 293.3 150.3 320 148.2C346.7 146 373.3 140 400 140C426.7 140 453.3 146 480 143.8C506.7 141.7 533.3 131.3 560 125.8C586.7 120.3 613.3 119.7 640 125.2C666.7 130.7 693.3 142.3 720 143C746.7 143.7 773.3 133.3 800 133.2C826.7 133 853.3 143 880 143.2C906.7 143.3 933.3 133.7 946.7 128.8L960 124L960 201L946.7 201C933.3 201 906.7 201 880 201C853.3 201 826.7 201 800 201C773.3 201 746.7 201 720 201C693.3 201 666.7 201 640 201C613.3 201 586.7 201 560 201C533.3 201 506.7 201 480 201C453.3 201 426.7 201 400 201C373.3 201 346.7 201 320 201C293.3 201 266.7 201 240 201C213.3 201 186.7 201 160 201C133.3 201 106.7 201 80 201C53.3 201 26.7 201 13.3 201L0 201Z" fill="#e49c00"></path><path d="M0 141L13.3 143.8C26.7 146.7 53.3 152.3 80 155C106.7 157.7 133.3 157.3 160 156.8C186.7 156.3 213.3 155.7 240 155.3C266.7 155 293.3 155 320 155.2C346.7 155.3 373.3 155.7 400 153.2C426.7 150.7 453.3 145.3 480 143.8C506.7 142.3 533.3 144.7 560 146.2C586.7 147.7 613.3 148.3 640 147.7C666.7 147 693.3 145 720 146.8C746.7 148.7 773.3 154.3 800 158C826.7 161.7 853.3 163.3 880 164.2C906.7 165 933.3 165 946.7 165L960 165L960 201L946.7 201C933.3 201 906.7 201 880 201C853.3 201 826.7 201 800 201C773.3 201 746.7 201 720 201C693.3 201 666.7 201 640 201C613.3 201 586.7 201 560 201C533.3 201 506.7 201 480 201C453.3 201 426.7 201 400 201C373.3 201 346.7 201 320 201C293.3 201 266.7 201 240 201C213.3 201 186.7 201 160 201C133.3 201 106.7 201 80 201C53.3 201 26.7 201 13.3 201L0 201Z" fill="#f29200"></path><path d="M0 178L13.3 176.3C26.7 174.7 53.3 171.3 80 171.3C106.7 171.3 133.3 174.7 160 176.2C186.7 177.7 213.3 177.3 240 177.5C266.7 177.7 293.3 178.3 320 177.3C346.7 176.3 373.3 173.7 400 171.5C426.7 169.3 453.3 167.7 480 168.3C506.7 169 533.3 172 560 174.7C586.7 177.3 613.3 179.7 640 181.2C666.7 182.7 693.3 183.3 720 183.3C746.7 183.3 773.3 182.7 800 182.7C826.7 182.7 853.3 183.3 880 183.8C906.7 184.3 933.3 184.7 946.7 184.8L960 185L960 201L946.7 201C933.3 201 906.7 201 880 201C853.3 201 826.7 201 800 201C773.3 201 746.7 201 720 201C693.3 201 666.7 201 640 201C613.3 201 586.7 201 560 201C533.3 201 506.7 201 480 201C453.3 201 426.7 201 400 201C373.3 201 346.7 201 320 201C293.3 201 266.7 201 240 201C213.3 201 186.7 201 160 201C133.3 201 106.7 201 80 201C53.3 201 26.7 201 13.3 201L0 201Z" fill="#ff8500"></path></svg>