<svg id="visual" viewBox="0 0 960 200" width="960" height="200" xmlns="http://www.w3.org/2000/svg" xmlns:xlink="http://www.w3.org/1999/xlink" version="1.1"><rect x="0" y="0" width="960" height="200" fill="#f41c34"></rect><path d="M0 44L13.3 44.7C26.7 45.3 53.3 46.7 80 53C106.7 59.3 133.3 70.7 160 73.8C186.7 77 213.3 72 240 64.5C266.7 57 293.3 47 320 49.8C346.7 52.7 373.3 68.3 400 67.5C426.7 66.7 453.3 49.3 480 50.7C506.7 52 533.3 72 560 74.7C586.7 77.3 613.3 62.7 640 62.7C666.7 62.7 693.3 77.3 720 76.3C746.7 75.3 773.3 58.7 800 56.5C826.7 54.3 853.3 66.7 880 73.2C906.7 79.7 933.3 80.3 946.7 80.7L960 81L960 201L946.7 201C933.3 201 906.7 201 880 201C853.3 201 826.7 201 800 201C773.3 201 746.7 201 720 201C693.3 201 666.7 201 640 201C613.3 201 586.7 201 560 201C533.3 201 506.7 201 480 201C453.3 201 426.7 201 400 201C373.3 201 346.7 201 320 201C293.3 201 266.7 201 240 201C213.3 201 186.7 201 160 201C133.3 201 106.7 201 80 201C53.3 201 26.7 201 13.3 201L0 201Z" fill="#f41c34"></path><path d="M0 62L13.3 64.5C26.7 67 53.3 72 80 73.3C106.7 74.7 133.3 72.3 160 71.3C186.7 70.3 213.3 70.7 240 68.8C266.7 67 293.3 63 320 63C346.7 63 373.3 67 400 73.2C426.7 79.3 453.3 87.7 480 88.8C506.7 90 533.3 84 560 77.2C586.7 70.3 613.3 62.7 640 60.2C666.7 57.7 693.3 60.3 720 64.2C746.7 68 773.3 73 800 75.5C826.7 78 853.3 78 880 81.3C906.7 84.7 933.3 91.3 946.7 94.7L960 98L960 201L946.7 201C933.3 201 906.7 201 880 201C853.3 201 826.7 201 800 201C773.3 201 746.7 201 720 201C693.3 201 666.7 201 640 201C613.3 201 586.7 201 560 201C533.3 201 506.7 201 480 201C453.3 201 426.7 201 400 201C373.3 201 346.7 201 320 201C293.3 201 266.7 201 240 201C213.3 201 186.7 201 160 201C133.3 201 106.7 201 80 201C53.3 201 26.7 201 13.3 201L0 201Z" fill="#f8362d"></path><path d="M0 77L13.3 84C26.7 91 53.3 105 80 108.7C106.7 112.3 133.3 105.7 160 100.8C186.7 96 213.3 93 240 97C266.7 101 293.3 112 320 109.8C346.7 107.7 373.3 92.3 400 90.2C426.7 88 453.3 99 480 100.2C506.7 101.3 533.3 92.7 560 92.8C586.7 93 613.3 102 640 103.7C666.7 105.3 693.3 99.7 720 93.7C746.7 87.7 773.3 81.3 800 80.2C826.7 79 853.3 83 880 83.5C906.7 84 933.3 81 946.7 79.5L960 78L960 201L946.7 201C933.3 201 906.7 201 880 201C853.3 201 826.7 201 800 201C773.3 201 746.7 201 720 201C693.3 201 666.7 201 640 201C613.3 201 586.7 201 560 201C533.3 201 506.7 201 480 201C453.3 201 426.7 201 400 201C373.3 201 346.7 201 320 201C293.3 201 266.7 201 240 201C213.3 201 186.7 201 160 201C133.3 201 106.7 201 80 201C53.3 201 26.7 201 13.3 201L0 201Z" fill="#fb4927"></path><path d="M0 121L13.3 121.2C26.7 121.3 53.3 121.7 80 118.5C106.7 115.3 133.3 108.7 160 107C186.7 105.3 213.3 108.7 240 110.3C266.7 112 293.3 112 320 113.8C346.7 115.7 373.3 119.3 400 117.5C426.7 115.7 453.3 108.3 480 104.5C506.7 100.7 533.3 100.3 560 102C586.7 103.7 613.3 107.3 640 112.2C666.7 117 693.3 123 720 122C746.7 121 773.3 113 800 113.3C826.7 113.7 853.3 122.3 880 126.7C906.7 131 933.3 131 946.7 131L960 131L960 201L946.7 201C933.3 201 906.7 201 880 201C853.3 201 826.7 201 800 201C773.3 201 746.7 201 720 201C693.3 201 666.7 201 640 201C613.3 201 586.7 201 560 201C533.3 201 506.7 201 480 201C453.3 201 426.7 201 400 201C373.3 201 346.7 201 320 201C293.3 201 266.7 201 240 201C213.3 201 186.7 201 160 201C133.3 201 106.7 201 80 201C53.3 201 26.7 201 13.3 201L0 201Z" fill="#fd5a1f"></path><path d="M0 137L13.3 134.5C26.7 132 53.3 127 80 125.7C106.7 124.3 133.3 126.7 160 126.7C186.7 126.7 213.3 124.3 240 125.3C266.7 126.3 293.3 130.7 320 131.2C346.7 131.7 373.3 128.3 400 125.7C426.7 123 453.3 121 480 125.8C506.7 130.7 533.3 142.3 560 143.2C586.7 144 613.3 134 640 129.2C666.7 124.3 693.3 124.7 720 129.7C746.7 134.7 773.3 144.3 800 148C826.7 151.7 853.3 149.3 880 148C906.7 146.7 933.3 146.3 946.7 146.2L960 146L960 201L946.7 201C933.3 201 906.7 201 880 201C853.3 201 826.7 201 800 201C773.3 201 746.7 201 720 201C693.3 201 666.7 201 640 201C613.3 201 586.7 201 560 201C533.3 201 506.7 201 480 201C453.3 201 426.7 201 400 201C373.3 201 346.7 201 320 201C293.3 201 266.7 201 240 201C213.3 201 186.7 201 160 201C133.3 201 106.7 201 80 201C53.3 201 26.7 201 13.3 201L0 201Z" fill="#fe6917"></path><path d="M0 153L13.3 155.8C26.7 158.7 53.3 164.3 80 164.8C106.7 165.3 133.3 160.7 160 160.7C186.7 160.7 213.3 165.3 240 164C266.7 162.7 293.3 155.3 320 155C346.7 154.7 373.3 161.3 400 161C426.7 160.7 453.3 153.3 480 152C506.7 150.7 533.3 155.3 560 159C586.7 162.7 613.3 165.3 640 164.7C666.7 164 693.3 160 720 155.5C746.7 151 773.3 146 800 146.5C826.7 147 853.3 153 880 153.8C906.7 154.7 933.3 150.3 946.7 148.2L960 146L960 201L946.7 201C933.3 201 906.7 201 880 201C853.3 201 826.7 201 800 201C773.3 201 746.7 201 720 201C693.3 201 666.7 201 640 201C613.3 201 586.7 201 560 201C533.3 201 506.7 201 480 201C453.3 201 426.7 201 400 201C373.3 201 346.7 201 320 201C293.3 201 266.7 201 240 201C213.3 201 186.7 201 160 201C133.3 201 106.7 201 80 201C53.3 201 26.7 201 13.3 201L0 201Z" fill="#ff770c"></path><path d="M0 183L13.3 180.2C26.7 177.3 53.3 171.7 80 171.5C106.7 171.3 133.3 176.7 160 177.8C186.7 179 213.3 176 240 173.7C266.7 171.3 293.3 169.7 320 171C346.7 172.3 373.3 176.7 400 178.3C426.7 180 453.3 179 480 178.2C506.7 177.3 533.3 176.7 560 176.7C586.7 176.7 613.3 177.3 640 176.7C666.7 176 693.3 174 720 172.5C746.7 171 773.3 170 800 169C826.7 168 853.3 167 880 167C906.7 167 933.3 168 946.7 168.5L960 169L960 201L946.7 201C933.3 201 906.7 201 880 201C853.3 201 826.7 201 800 201C773.3 201 746.7 201 720 201C693.3 201 666.7 201 640 201C613.3 201 586.7 201 560 201C533.3 201 506.7 201 480 201C453.3 201 426.7 201 400 201C373.3 201 346.7 201 320 201C293.3 201 266.7 201 240 201C213.3 201 186.7 201 160 201C133.3 201 106.7 201 80 201C53.3 201 26.7 201 13.3 201L0 201Z" fill="#ff8500"></path></svg>