<svg id="visual" viewBox="0 0 960 300" width="960" height="300" xmlns="http://www.w3.org/2000/svg" xmlns:xlink="http://www.w3.org/1999/xlink" version="1.1"><rect x="0" y="0" width="960" height="300" fill="#ff8500"></rect><path d="M0 238L22.8 233.2C45.7 228.3 91.3 218.7 137 217.7C182.7 216.7 228.3 224.3 274 220.3C319.7 216.3 365.3 200.7 411.2 195.2C457 189.7 503 194.3 548.8 192.2C594.7 190 640.3 181 686 176.7C731.7 172.3 777.3 172.7 823 175.8C868.7 179 914.3 185 937.2 188L960 191L960 0L937.2 0C914.3 0 868.7 0 823 0C777.3 0 731.7 0 686 0C640.3 0 594.7 0 548.8 0C503 0 457 0 411.2 0C365.3 0 319.7 0 274 0C228.3 0 182.7 0 137 0C91.3 0 45.7 0 22.8 0L0 0Z" fill="#fd5802"></path><path d="M0 144L22.8 143.3C45.7 142.7 91.3 141.3 137 139.8C182.7 138.3 228.3 136.7 274 136.3C319.7 136 365.3 137 411.2 143.5C457 150 503 162 548.8 170C594.7 178 640.3 182 686 174.5C731.7 167 777.3 148 823 137.5C868.7 127 914.3 125 937.2 124L960 123L960 0L937.2 0C914.3 0 868.7 0 823 0C777.3 0 731.7 0 686 0C640.3 0 594.7 0 548.8 0C503 0 457 0 411.2 0C365.3 0 319.7 0 274 0C228.3 0 182.7 0 137 0C91.3 0 45.7 0 22.8 0L0 0Z" fill="#f4451f"></path><path d="M0 77L22.8 83.5C45.7 90 91.3 103 137 107.2C182.7 111.3 228.3 106.7 274 98.7C319.7 90.7 365.3 79.3 411.2 75.2C457 71 503 74 548.8 81.8C594.7 89.7 640.3 102.3 686 101.3C731.7 100.3 777.3 85.7 823 87.8C868.7 90 914.3 109 937.2 118.5L960 128L960 0L937.2 0C914.3 0 868.7 0 823 0C777.3 0 731.7 0 686 0C640.3 0 594.7 0 548.8 0C503 0 457 0 411.2 0C365.3 0 319.7 0 274 0C228.3 0 182.7 0 137 0C91.3 0 45.7 0 22.8 0L0 0Z" fill="#e8312d"></path><path d="M0 32L22.8 38.7C45.7 45.3 91.3 58.7 137 67.8C182.7 77 228.3 82 274 84.7C319.7 87.3 365.3 87.7 411.2 81.2C457 74.7 503 61.3 548.8 58.3C594.7 55.3 640.3 62.7 686 61C731.7 59.3 777.3 48.7 823 50.3C868.7 52 914.3 66 937.2 73L960 80L960 0L937.2 0C914.3 0 868.7 0 823 0C777.3 0 731.7 0 686 0C640.3 0 594.7 0 548.8 0C503 0 457 0 411.2 0C365.3 0 319.7 0 274 0C228.3 0 182.7 0 137 0C91.3 0 45.7 0 22.8 0L0 0Z" fill="#da1e37"></path></svg>