<svg id="visual" viewBox="0 0 960 200" width="960" height="200" xmlns="http://www.w3.org/2000/svg" xmlns:xlink="http://www.w3.org/1999/xlink" version="1.1"><rect x="0" y="0" width="960" height="200" fill="#ff8500"></rect><path d="M0 153L20 147.7C40 142.3 80 131.7 120 125.3C160 119 200 117 240 122.3C280 127.7 320 140.3 360 131.2C400 122 440 91 480 83.3C520 75.7 560 91.3 600 87C640 82.7 680 58.3 720 46C760 33.7 800 33.3 840 52.5C880 71.7 920 110.3 940 129.7L960 149L960 201L940 201C920 201 880 201 840 201C800 201 760 201 720 201C680 201 640 201 600 201C560 201 520 201 480 201C440 201 400 201 360 201C320 201 280 201 240 201C200 201 160 201 120 201C80 201 40 201 20 201L0 201Z" fill="#f41c34" stroke-linecap="round" stroke-linejoin="miter"></path></svg>