<svg id="visual" viewBox="0 0 960 200" width="960" height="200" xmlns="http://www.w3.org/2000/svg" xmlns:xlink="http://www.w3.org/1999/xlink" version="1.1"><rect x="0" y="0" width="960" height="200" fill="#ff8500"></rect><path d="M0 31L13.3 38.5C26.7 46 53.3 61 80 71.2C106.7 81.3 133.3 86.7 160 88C186.7 89.3 213.3 86.7 240 81.3C266.7 76 293.3 68 320 61.2C346.7 54.3 373.3 48.7 400 53.8C426.7 59 453.3 75 480 78.2C506.7 81.3 533.3 71.7 560 65.3C586.7 59 613.3 56 640 54.3C666.7 52.7 693.3 52.3 720 55.2C746.7 58 773.3 64 800 67.3C826.7 70.7 853.3 71.3 880 70.3C906.7 69.3 933.3 66.7 946.7 65.3L960 64L960 201L946.7 201C933.3 201 906.7 201 880 201C853.3 201 826.7 201 800 201C773.3 201 746.7 201 720 201C693.3 201 666.7 201 640 201C613.3 201 586.7 201 560 201C533.3 201 506.7 201 480 201C453.3 201 426.7 201 400 201C373.3 201 346.7 201 320 201C293.3 201 266.7 201 240 201C213.3 201 186.7 201 160 201C133.3 201 106.7 201 80 201C53.3 201 26.7 201 13.3 201L0 201Z" fill="#ff8500"></path><path d="M0 60L13.3 60.2C26.7 60.3 53.3 60.7 80 67.5C106.7 74.3 133.3 87.7 160 94.5C186.7 101.3 213.3 101.7 240 95C266.7 88.3 293.3 74.7 320 71.2C346.7 67.7 373.3 74.3 400 81.7C426.7 89 453.3 97 480 94.3C506.7 91.7 533.3 78.3 560 76.5C586.7 74.7 613.3 84.3 640 83.8C666.7 83.3 693.3 72.7 720 74C746.7 75.3 773.3 88.7 800 94.8C826.7 101 853.3 100 880 93.5C906.7 87 933.3 75 946.7 69L960 63L960 201L946.7 201C933.3 201 906.7 201 880 201C853.3 201 826.7 201 800 201C773.3 201 746.7 201 720 201C693.3 201 666.7 201 640 201C613.3 201 586.7 201 560 201C533.3 201 506.7 201 480 201C453.3 201 426.7 201 400 201C373.3 201 346.7 201 320 201C293.3 201 266.7 201 240 201C213.3 201 186.7 201 160 201C133.3 201 106.7 201 80 201C53.3 201 26.7 201 13.3 201L0 201Z" fill="#f29200"></path><path d="M0 114L13.3 109.8C26.7 105.7 53.3 97.3 80 98.7C106.7 100 133.3 111 160 116.7C186.7 122.3 213.3 122.7 240 120.2C266.7 117.7 293.3 112.3 320 107.3C346.7 102.3 373.3 97.7 400 93.7C426.7 89.7 453.3 86.3 480 88.5C506.7 90.7 533.3 98.3 560 105C586.7 111.7 613.3 117.3 640 115C666.7 112.7 693.3 102.3 720 95.3C746.7 88.3 773.3 84.7 800 83.3C826.7 82 853.3 83 880 86C906.7 89 933.3 94 946.7 96.5L960 99L960 201L946.7 201C933.3 201 906.7 201 880 201C853.3 201 826.7 201 800 201C773.3 201 746.7 201 720 201C693.3 201 666.7 201 640 201C613.3 201 586.7 201 560 201C533.3 201 506.7 201 480 201C453.3 201 426.7 201 400 201C373.3 201 346.7 201 320 201C293.3 201 266.7 201 240 201C213.3 201 186.7 201 160 201C133.3 201 106.7 201 80 201C53.3 201 26.7 201 13.3 201L0 201Z" fill="#e49c00"></path><path d="M0 112L13.3 115.2C26.7 118.3 53.3 124.7 80 127.8C106.7 131 133.3 131 160 128.8C186.7 126.7 213.3 122.3 240 120.2C266.7 118 293.3 118 320 120C346.7 122 373.3 126 400 128.2C426.7 130.3 453.3 130.7 480 126.7C506.7 122.7 533.3 114.3 560 112.5C586.7 110.7 613.3 115.3 640 115.2C666.7 115 693.3 110 720 111.5C746.7 113 773.3 121 800 122.8C826.7 124.7 853.3 120.3 880 122.2C906.7 124 933.3 132 946.7 136L960 140L960 201L946.7 201C933.3 201 906.7 201 880 201C853.3 201 826.7 201 800 201C773.3 201 746.7 201 720 201C693.3 201 666.7 201 640 201C613.3 201 586.7 201 560 201C533.3 201 506.7 201 480 201C453.3 201 426.7 201 400 201C373.3 201 346.7 201 320 201C293.3 201 266.7 201 240 201C213.3 201 186.7 201 160 201C133.3 201 106.7 201 80 201C53.3 201 26.7 201 13.3 201L0 201Z" fill="#d6a600"></path><path d="M0 142L13.3 144.2C26.7 146.3 53.3 150.7 80 150.5C106.7 150.3 133.3 145.7 160 145C186.7 144.3 213.3 147.7 240 148.2C266.7 148.7 293.3 146.3 320 143C346.7 139.7 373.3 135.3 400 131.2C426.7 127 453.3 123 480 123.5C506.7 124 533.3 129 560 131C586.7 133 613.3 132 640 131.8C666.7 131.7 693.3 132.3 720 131.8C746.7 131.3 773.3 129.7 800 131.8C826.7 134 853.3 140 880 144C906.7 148 933.3 150 946.7 151L960 152L960 201L946.7 201C933.3 201 906.7 201 880 201C853.3 201 826.7 201 800 201C773.3 201 746.7 201 720 201C693.3 201 666.7 201 640 201C613.3 201 586.7 201 560 201C533.3 201 506.7 201 480 201C453.3 201 426.7 201 400 201C373.3 201 346.7 201 320 201C293.3 201 266.7 201 240 201C213.3 201 186.7 201 160 201C133.3 201 106.7 201 80 201C53.3 201 26.7 201 13.3 201L0 201Z" fill="#c8ae00"></path><path d="M0 149L13.3 149.8C26.7 150.7 53.3 152.3 80 153.8C106.7 155.3 133.3 156.7 160 155.7C186.7 154.7 213.3 151.3 240 152.2C266.7 153 293.3 158 320 158C346.7 158 373.3 153 400 151C426.7 149 453.3 150 480 152C506.7 154 533.3 157 560 155.5C586.7 154 613.3 148 640 149.2C666.7 150.3 693.3 158.7 720 162.5C746.7 166.3 773.3 165.7 800 165.5C826.7 165.3 853.3 165.7 880 163.3C906.7 161 933.3 156 946.7 153.5L960 151L960 201L946.7 201C933.3 201 906.7 201 880 201C853.3 201 826.7 201 800 201C773.3 201 746.7 201 720 201C693.3 201 666.7 201 640 201C613.3 201 586.7 201 560 201C533.3 201 506.7 201 480 201C453.3 201 426.7 201 400 201C373.3 201 346.7 201 320 201C293.3 201 266.7 201 240 201C213.3 201 186.7 201 160 201C133.3 201 106.7 201 80 201C53.3 201 26.7 201 13.3 201L0 201Z" fill="#b7b600"></path><path d="M0 186L13.3 184.5C26.7 183 53.3 180 80 177.2C106.7 174.3 133.3 171.7 160 169.3C186.7 167 213.3 165 240 164.7C266.7 164.3 293.3 165.7 320 167.2C346.7 168.7 373.3 170.3 400 170.8C426.7 171.3 453.3 170.7 480 170C506.7 169.3 533.3 168.7 560 167.3C586.7 166 613.3 164 640 165C666.7 166 693.3 170 720 170.8C746.7 171.7 773.3 169.3 800 169.3C826.7 169.3 853.3 171.7 880 171.8C906.7 172 933.3 170 946.7 169L960 168L960 201L946.7 201C933.3 201 906.7 201 880 201C853.3 201 826.7 201 800 201C773.3 201 746.7 201 720 201C693.3 201 666.7 201 640 201C613.3 201 586.7 201 560 201C533.3 201 506.7 201 480 201C453.3 201 426.7 201 400 201C373.3 201 346.7 201 320 201C293.3 201 266.7 201 240 201C213.3 201 186.7 201 160 201C133.3 201 106.7 201 80 201C53.3 201 26.7 201 13.3 201L0 201Z" fill="#a5be00"></path></svg>