<svg id="visual" viewBox="0 0 960 200" width="960" height="200" xmlns="http://www.w3.org/2000/svg" xmlns:xlink="http://www.w3.org/1999/xlink" version="1.1"><rect x="0" y="0" width="960" height="200" fill="#ff8500"></rect><path d="M0 86L51 107L101 94L152 79L202 81L253 89L303 83L354 104L404 100L455 99L505 77L556 102L606 77L657 92L707 100L758 103L808 77L859 98L909 108L960 94L960 201L909 201L859 201L808 201L758 201L707 201L657 201L606 201L556 201L505 201L455 201L404 201L354 201L303 201L253 201L202 201L152 201L101 201L51 201L0 201Z" fill="#871400"></path><path d="M0 99L51 109L101 101L152 127L202 102L253 108L303 105L354 116L404 126L455 101L505 103L556 115L606 120L657 105L707 104L758 99L808 108L859 105L909 108L960 104L960 201L909 201L859 201L808 201L758 201L707 201L657 201L606 201L556 201L505 201L455 201L404 201L354 201L303 201L253 201L202 201L152 201L101 201L51 201L0 201Z" fill="#a32d04"></path><path d="M0 133L51 134L101 128L152 144L202 142L253 146L303 137L354 130L404 120L455 137L505 125L556 135L606 146L657 147L707 135L758 139L808 146L859 128L909 135L960 122L960 201L909 201L859 201L808 201L758 201L707 201L657 201L606 201L556 201L505 201L455 201L404 201L354 201L303 201L253 201L202 201L152 201L101 201L51 201L0 201Z" fill="#be4407"></path><path d="M0 153L51 154L101 147L152 162L202 158L253 155L303 158L354 157L404 153L455 157L505 147L556 167L606 147L657 151L707 144L758 153L808 163L859 158L909 156L960 145L960 201L909 201L859 201L808 201L758 201L707 201L657 201L606 201L556 201L505 201L455 201L404 201L354 201L303 201L253 201L202 201L152 201L101 201L51 201L0 201Z" fill="#da5b09"></path><path d="M0 174L51 170L101 170L152 178L202 180L253 183L303 166L354 182L404 184L455 175L505 181L556 178L606 169L657 170L707 172L758 169L808 184L859 183L909 165L960 183L960 201L909 201L859 201L808 201L758 201L707 201L657 201L606 201L556 201L505 201L455 201L404 201L354 201L303 201L253 201L202 201L152 201L101 201L51 201L0 201Z" fill="#f5730a"></path></svg>