<svg id="visual" viewBox="0 0 960 200" width="960" height="200" xmlns="http://www.w3.org/2000/svg" xmlns:xlink="http://www.w3.org/1999/xlink" version="1.1"><rect x="0" y="0" width="960" height="200" fill="#a06cd5"></rect><path d="M0 98L51 83L101 83L152 95L202 83L253 105L303 92L354 79L404 94L455 84L505 105L556 79L606 78L657 100L707 108L758 106L808 84L859 100L909 78L960 82L960 201L909 201L859 201L808 201L758 201L707 201L657 201L606 201L556 201L505 201L455 201L404 201L354 201L303 201L253 201L202 201L152 201L101 201L51 201L0 201Z" fill="#871400"></path><path d="M0 103L51 123L101 114L152 122L202 123L253 127L303 100L354 116L404 114L455 112L505 105L556 109L606 105L657 121L707 102L758 126L808 114L859 108L909 115L960 127L960 201L909 201L859 201L808 201L758 201L707 201L657 201L606 201L556 201L505 201L455 201L404 201L354 201L303 201L253 201L202 201L152 201L101 201L51 201L0 201Z" fill="#a32d04"></path><path d="M0 146L51 143L101 126L152 129L202 123L253 137L303 131L354 146L404 121L455 122L505 134L556 121L606 122L657 136L707 120L758 124L808 148L859 125L909 136L960 140L960 201L909 201L859 201L808 201L758 201L707 201L657 201L606 201L556 201L505 201L455 201L404 201L354 201L303 201L253 201L202 201L152 201L101 201L51 201L0 201Z" fill="#be4407"></path><path d="M0 145L51 160L101 167L152 153L202 142L253 154L303 147L354 153L404 159L455 157L505 164L556 152L606 143L657 152L707 154L758 145L808 143L859 160L909 166L960 164L960 201L909 201L859 201L808 201L758 201L707 201L657 201L606 201L556 201L505 201L455 201L404 201L354 201L303 201L253 201L202 201L152 201L101 201L51 201L0 201Z" fill="#da5b09"></path><path d="M0 168L51 186L101 169L152 172L202 167L253 181L303 179L354 169L404 183L455 167L505 172L556 179L606 173L657 180L707 179L758 167L808 180L859 169L909 186L960 183L960 201L909 201L859 201L808 201L758 201L707 201L657 201L606 201L556 201L505 201L455 201L404 201L354 201L303 201L253 201L202 201L152 201L101 201L51 201L0 201Z" fill="#f5730a"></path></svg>