<svg id="visual" viewBox="0 0 960 200" width="960" height="200" xmlns="http://www.w3.org/2000/svg" xmlns:xlink="http://www.w3.org/1999/xlink" version="1.1"><rect x="0" y="0" width="960" height="200" fill="#ffc857"></rect><path d="M0 115L17.8 108C35.7 101 71.3 87 106.8 93C142.3 99 177.7 125 213.2 123.3C248.7 121.7 284.3 92.3 320 92C355.7 91.7 391.3 120.3 426.8 131.3C462.3 142.3 497.7 135.7 533.2 121.5C568.7 107.3 604.3 85.7 640 74.3C675.7 63 711.3 62 746.8 74.5C782.3 87 817.7 113 853.2 109.8C888.7 106.7 924.3 74.3 942.2 58.2L960 42L960 0L942.2 0C924.3 0 888.7 0 853.2 0C817.7 0 782.3 0 746.8 0C711.3 0 675.7 0 640 0C604.3 0 568.7 0 533.2 0C497.7 0 462.3 0 426.8 0C391.3 0 355.7 0 320 0C284.3 0 248.7 0 213.2 0C177.7 0 142.3 0 106.8 0C71.3 0 35.7 0 17.8 0L0 0Z" fill="#ff8500" stroke-linecap="round" stroke-linejoin="miter"></path></svg>