<svg id="visual" viewBox="0 0 960 200" width="960" height="200" xmlns="http://www.w3.org/2000/svg" xmlns:xlink="http://www.w3.org/1999/xlink" version="1.1"><rect x="0" y="0" width="960" height="200" fill="#ffc857"></rect><path d="M0 107L14.5 114C29 121 58 135 87.2 145C116.3 155 145.7 161 174.8 149.3C204 137.7 233 108.3 262 89.3C291 70.3 320 61.7 349 66.5C378 71.3 407 89.7 436.2 105.2C465.3 120.7 494.7 133.3 523.8 128.2C553 123 582 100 611 93C640 86 669 95 698 110.5C727 126 756 148 785.2 152.8C814.3 157.7 843.7 145.3 872.8 120.3C902 95.3 931 57.7 945.5 38.8L960 20L960 201L945.5 201C931 201 902 201 872.8 201C843.7 201 814.3 201 785.2 201C756 201 727 201 698 201C669 201 640 201 611 201C582 201 553 201 523.8 201C494.7 201 465.3 201 436.2 201C407 201 378 201 349 201C320 201 291 201 262 201C233 201 204 201 174.8 201C145.7 201 116.3 201 87.2 201C58 201 29 201 14.5 201L0 201Z" fill="#00b4d8" stroke-linecap="round" stroke-linejoin="miter"></path></svg>