<svg id="visual" viewBox="0 0 960 200" width="960" height="200" xmlns="http://www.w3.org/2000/svg" xmlns:xlink="http://www.w3.org/1999/xlink" version="1.1"><rect x="0" y="0" width="960" height="200" fill="#a5be00"></rect><path d="M0 149L17.8 141.8C35.7 134.7 71.3 120.3 106.8 120.3C142.3 120.3 177.7 134.7 213.2 140C248.7 145.3 284.3 141.7 320 123.7C355.7 105.7 391.3 73.3 426.8 70.3C462.3 67.3 497.7 93.7 533.2 96.5C568.7 99.3 604.3 78.7 640 72.3C675.7 66 711.3 74 746.8 87.2C782.3 100.3 817.7 118.7 853.2 121.2C888.7 123.7 924.3 110.3 942.2 103.7L960 97L960 0L942.2 0C924.3 0 888.7 0 853.2 0C817.7 0 782.3 0 746.8 0C711.3 0 675.7 0 640 0C604.3 0 568.7 0 533.2 0C497.7 0 462.3 0 426.8 0C391.3 0 355.7 0 320 0C284.3 0 248.7 0 213.2 0C177.7 0 142.3 0 106.8 0C71.3 0 35.7 0 17.8 0L0 0Z" fill="#ffc857" stroke-linecap="round" stroke-linejoin="miter"></path></svg>